<svg width="448" height="170" viewBox="0 0 448 170" fill="none" xmlns="http://www.w3.org/2000/svg">
<rect width="448" height="170" rx="20" fill="#DBDABE"/>
<path d="M51 75.6667V66.3333C51 63.858 51.9833 61.484 53.7337 59.7337C55.484 57.9833 57.858 57 60.3333 57H69.6667M51 75.6667C57.2207 75.6667 69.6667 71.9333 69.6667 57M51 75.6667V94.3333M69.6667 57H116.333M51 94.3333V103.667C51 106.142 51.9833 108.516 53.7337 110.266C55.484 112.017 57.858 113 60.3333 113H69.6667M51 94.3333C57.2207 94.3333 69.6667 98.0667 69.6667 113M135 75.6667V66.3333C135 63.858 134.017 61.484 132.266 59.7337C130.516 57.9833 128.142 57 125.667 57H116.333M135 75.6667C128.779 75.6667 116.333 71.9333 116.333 57M135 75.6667V94.3333M69.6667 113H88.3333" stroke="#243956" stroke-width="8.33333" stroke-linecap="round" stroke-linejoin="round"/>
<path d="M93.0001 94.3337C98.1547 94.3337 102.333 90.155 102.333 85.0003C102.333 79.8457 98.1547 75.667 93.0001 75.667C87.8454 75.667 83.6667 79.8457 83.6667 85.0003C83.6667 90.155 87.8454 94.3337 93.0001 94.3337Z" stroke="#243956" stroke-width="8.33333" stroke-linecap="round" stroke-linejoin="round"/>
<path d="M107 113H135" stroke="#243956" stroke-width="8.33333" stroke-linecap="round" stroke-linejoin="round"/>
<path d="M196.256 103H189.225L202.027 66.6364H210.159L222.979 103H215.947L206.235 74.0938H205.951L196.256 103ZM196.487 88.7422H215.663V94.0334H196.487V88.7422ZM239.956 75.7273V80.6989H223.834V75.7273H239.956ZM227.865 103V73.1527C227.865 71.3179 228.243 69.791 229.001 68.5717C229.77 67.3525 230.8 66.4411 232.091 65.8374C233.381 65.2337 234.813 64.9318 236.387 64.9318C237.5 64.9318 238.489 65.0206 239.353 65.1982C240.217 65.3757 240.856 65.5355 241.27 65.6776L239.992 70.6491C239.72 70.5663 239.376 70.4834 238.962 70.4006C238.548 70.3059 238.086 70.2585 237.577 70.2585C236.382 70.2585 235.535 70.5485 235.038 71.1286C234.553 71.6967 234.31 72.5135 234.31 73.5788V103H227.865ZM243.99 103V75.7273H250.418V103H243.99ZM247.222 71.8565C246.204 71.8565 245.328 71.5192 244.594 70.8445C243.86 70.1579 243.493 69.3352 243.493 68.3764C243.493 67.4058 243.86 66.5831 244.594 65.9084C245.328 65.2218 246.204 64.8786 247.222 64.8786C248.251 64.8786 249.127 65.2218 249.849 65.9084C250.583 66.5831 250.95 67.4058 250.95 68.3764C250.95 69.3352 250.583 70.1579 249.849 70.8445C249.127 71.5192 248.251 71.8565 247.222 71.8565ZM256.027 103V75.7273H262.259V80.2727H262.544C263.041 78.6984 263.893 77.4851 265.1 76.6328C266.32 75.7687 267.71 75.3366 269.273 75.3366C269.628 75.3366 270.025 75.3544 270.463 75.3899C270.912 75.4136 271.285 75.455 271.581 75.5142V81.4268C271.309 81.3321 270.877 81.2493 270.285 81.1783C269.705 81.0954 269.143 81.054 268.598 81.054C267.426 81.054 266.373 81.3085 265.438 81.8175C264.514 82.3146 263.786 83.0071 263.254 83.8949C262.721 84.7827 262.455 85.8066 262.455 86.9666V103H256.027ZM274.851 103V75.7273H280.995V80.3615H281.314C281.883 78.799 282.824 77.5798 284.138 76.7038C285.452 75.8161 287.02 75.3722 288.843 75.3722C290.689 75.3722 292.246 75.822 293.513 76.7216C294.791 77.6094 295.691 78.8227 296.211 80.3615H296.496C297.099 78.8464 298.117 77.639 299.55 76.7393C300.994 75.8279 302.704 75.3722 304.681 75.3722C307.19 75.3722 309.238 76.1652 310.824 77.7514C312.411 79.3376 313.204 81.6518 313.204 84.6939V103H306.758V85.6882C306.758 83.9955 306.309 82.7585 305.409 81.9773C304.509 81.1842 303.408 80.7876 302.106 80.7876C300.556 80.7876 299.342 81.273 298.466 82.2436C297.602 83.2024 297.17 84.4512 297.17 85.9901V103H290.867V85.4219C290.867 84.0133 290.441 82.8887 289.589 82.0483C288.748 81.2079 287.647 80.7876 286.286 80.7876C285.363 80.7876 284.522 81.0244 283.765 81.4979C283.007 81.9595 282.403 82.6165 281.954 83.4688C281.504 84.3092 281.279 85.2917 281.279 86.4162V103H274.851ZM326.572 103.55C324.844 103.55 323.288 103.243 321.903 102.627C320.53 102 319.441 101.076 318.636 99.8572C317.843 98.638 317.446 97.1347 317.446 95.3473C317.446 93.8085 317.73 92.536 318.298 91.5298C318.866 90.5237 319.642 89.7188 320.624 89.1151C321.607 88.5114 322.714 88.0556 323.945 87.7479C325.188 87.4283 326.472 87.1974 327.798 87.0554C329.396 86.8897 330.692 86.7417 331.686 86.6115C332.68 86.4695 333.402 86.2564 333.852 85.9723C334.314 85.6764 334.545 85.2206 334.545 84.6051V84.4986C334.545 83.161 334.148 82.1252 333.355 81.3913C332.562 80.6574 331.42 80.2905 329.928 80.2905C328.354 80.2905 327.105 80.6338 326.182 81.3203C325.27 82.0069 324.655 82.8177 324.335 83.7528L318.334 82.9006C318.807 81.2434 319.589 79.8584 320.678 78.7457C321.767 77.6212 323.098 76.7808 324.673 76.2244C326.247 75.6562 327.987 75.3722 329.893 75.3722C331.207 75.3722 332.515 75.526 333.817 75.8338C335.119 76.1416 336.308 76.6506 337.386 77.3608C338.463 78.0592 339.327 79.0121 339.978 80.2195C340.641 81.4268 340.972 82.9361 340.972 84.7472V103H334.793V99.2536H334.58C334.19 100.011 333.639 100.721 332.929 101.384C332.231 102.035 331.349 102.562 330.283 102.964C329.23 103.355 327.993 103.55 326.572 103.55ZM328.241 98.8274C329.532 98.8274 330.65 98.5729 331.597 98.0639C332.544 97.5431 333.272 96.8565 333.781 96.0043C334.302 95.152 334.562 94.2228 334.562 93.2166V90.0028C334.361 90.1686 334.018 90.3224 333.533 90.4645C333.059 90.6065 332.527 90.7308 331.935 90.8374C331.343 90.9439 330.757 91.0386 330.177 91.1214C329.597 91.2043 329.094 91.2753 328.668 91.3345C327.709 91.4647 326.851 91.6778 326.093 91.9737C325.335 92.2696 324.738 92.6839 324.3 93.2166C323.862 93.7375 323.643 94.4122 323.643 95.2408C323.643 96.4245 324.075 97.3182 324.939 97.9219C325.803 98.5256 326.904 98.8274 328.241 98.8274ZM367.991 82.9361L362.131 83.5753C361.966 82.9834 361.676 82.4271 361.261 81.9062C360.859 81.3854 360.314 80.9652 359.628 80.6456C358.941 80.326 358.101 80.1662 357.107 80.1662C355.769 80.1662 354.644 80.4562 353.733 81.0362C352.833 81.6162 352.389 82.3679 352.401 83.2912C352.389 84.0843 352.679 84.7294 353.271 85.2266C353.875 85.7237 354.869 86.1321 356.254 86.4517L360.906 87.446C363.487 88.0024 365.404 88.8842 366.659 90.0916C367.926 91.299 368.565 92.8793 368.577 94.8324C368.565 96.5488 368.062 98.0639 367.067 99.3778C366.085 100.68 364.718 101.698 362.966 102.432C361.214 103.166 359.202 103.533 356.929 103.533C353.591 103.533 350.904 102.834 348.868 101.438C346.832 100.029 345.619 98.0698 345.228 95.5604L351.496 94.9567C351.78 96.1877 352.384 97.117 353.307 97.7443C354.23 98.3717 355.432 98.6854 356.911 98.6854C358.438 98.6854 359.663 98.3717 360.587 97.7443C361.522 97.117 361.989 96.3416 361.989 95.4183C361.989 94.6371 361.688 93.992 361.084 93.483C360.492 92.974 359.569 92.5833 358.314 92.3111L353.662 91.3345C351.046 90.79 349.111 89.8726 347.856 88.5824C346.601 87.2803 345.98 85.6349 345.991 83.6463C345.98 81.9654 346.435 80.5095 347.359 79.2784C348.294 78.0355 349.59 77.0767 351.247 76.402C352.916 75.7154 354.84 75.3722 357.018 75.3722C360.214 75.3722 362.729 76.0528 364.564 77.4141C366.411 78.7753 367.553 80.616 367.991 82.9361ZM372.877 103V75.7273H379.304V103H372.877ZM376.108 71.8565C375.09 71.8565 374.214 71.5192 373.48 70.8445C372.747 70.1579 372.38 69.3352 372.38 68.3764C372.38 67.4058 372.747 66.5831 373.48 65.9084C374.214 65.2218 375.09 64.8786 376.108 64.8786C377.138 64.8786 378.014 65.2218 378.736 65.9084C379.47 66.5831 379.837 67.4058 379.837 68.3764C379.837 69.3352 379.47 70.1579 378.736 70.8445C378.014 71.5192 377.138 71.8565 376.108 71.8565Z" fill="#243956"/>
</svg>
