<svg width="448" height="170" viewBox="0 0 448 170" fill="none" xmlns="http://www.w3.org/2000/svg">
<rect width="448" height="170" rx="20" fill="#50463C"/>
<path d="M121.396 54.958H126.555C131.709 54.958 134.284 54.958 135.631 56.576C136.975 58.1982 136.417 60.6273 135.297 65.4898L133.623 72.7856C131.095 83.7465 121.868 91.9007 110.667 93.583M65.6043 54.958H60.4457C55.2914 54.958 52.7121 54.958 51.3688 56.576C50.0255 58.1982 50.5834 60.6273 51.7036 65.4898L53.3773 72.7856C55.9051 83.7465 65.1322 91.9007 76.3334 93.583M93.5001 106.458C86.3159 106.458 80.0672 111.887 76.8399 119.895C75.2949 123.723 77.5094 127.916 80.4449 127.916H106.551C109.491 127.916 111.701 123.723 110.16 119.895C106.933 111.887 100.684 106.458 93.5001 106.458Z" stroke="white" stroke-width="6.25" stroke-linecap="round" stroke-linejoin="round"/>
<path d="M93.5001 106.458C106.461 106.458 117.383 86.4507 120.666 59.2072C121.572 51.6797 122.027 47.9116 119.623 44.9975C117.22 42.0835 113.336 42.0835 105.573 42.0835H81.4277C73.6597 42.0835 69.7801 42.0835 67.3767 44.9975C64.9734 47.9116 65.4326 51.6797 66.3339 59.2115C69.617 86.4507 80.5393 106.458 93.5001 106.458Z" stroke="white" stroke-width="6.25" stroke-linecap="round" stroke-linejoin="round"/>
<path d="M191.587 103V66.6364H205.223C208.017 66.6364 210.36 67.1572 212.254 68.1989C214.16 69.2405 215.598 70.6728 216.569 72.4957C217.551 74.3068 218.043 76.3665 218.043 78.6747C218.043 81.0066 217.551 83.0781 216.569 84.8892C215.586 86.7003 214.136 88.1267 212.219 89.1683C210.301 90.1982 207.94 90.7131 205.134 90.7131H196.097V85.2976H204.246C205.88 85.2976 207.218 85.0135 208.259 84.4453C209.301 83.8771 210.07 83.0959 210.567 82.1016C211.076 81.1072 211.331 79.965 211.331 78.6747C211.331 77.3845 211.076 76.2481 210.567 75.2656C210.07 74.2831 209.295 73.5196 208.241 72.9751C207.2 72.4188 205.856 72.1406 204.211 72.1406H198.174V103H191.587ZM222.48 103V75.7273H228.713V80.2727H228.997C229.494 78.6984 230.346 77.4851 231.553 76.6328C232.773 75.7687 234.164 75.3366 235.726 75.3366C236.081 75.3366 236.478 75.3544 236.916 75.3899C237.365 75.4136 237.738 75.455 238.034 75.5142V81.4268C237.762 81.3321 237.33 81.2493 236.738 81.1783C236.158 81.0954 235.596 81.054 235.051 81.054C233.879 81.054 232.826 81.3085 231.891 81.8175C230.968 82.3146 230.24 83.0071 229.707 83.8949C229.174 84.7827 228.908 85.8066 228.908 86.9666V103H222.48ZM252.255 103.533C249.521 103.533 247.159 102.964 245.171 101.828C243.194 100.68 241.673 99.0582 240.608 96.9631C239.542 94.8561 239.01 92.3762 239.01 89.5234C239.01 86.718 239.542 84.2559 240.608 82.1371C241.685 80.0064 243.188 78.3492 245.118 77.1655C247.047 75.9699 249.314 75.3722 251.918 75.3722C253.599 75.3722 255.185 75.6444 256.676 76.1889C258.18 76.7216 259.506 77.5502 260.654 78.6747C261.814 79.7992 262.725 81.2315 263.388 82.9716C264.051 84.6998 264.382 86.7595 264.382 89.1506V91.1214H242.028V86.7891H258.221C258.209 85.558 257.943 84.4631 257.422 83.5043C256.901 82.5336 256.173 81.7701 255.238 81.2138C254.315 80.6574 253.238 80.3793 252.007 80.3793C250.693 80.3793 249.539 80.6989 248.544 81.3381C247.55 81.9654 246.775 82.794 246.218 83.8239C245.674 84.8419 245.396 85.9605 245.384 87.1797V90.9616C245.384 92.5478 245.674 93.9091 246.254 95.0455C246.834 96.17 247.645 97.0341 248.686 97.6378C249.728 98.2296 250.947 98.5256 252.344 98.5256C253.279 98.5256 254.126 98.3954 254.883 98.1349C255.641 97.8627 256.298 97.4661 256.854 96.9453C257.41 96.4245 257.831 95.7794 258.115 95.0099L264.116 95.6847C263.737 97.2708 263.015 98.6558 261.95 99.8395C260.896 101.011 259.547 101.923 257.902 102.574C256.256 103.213 254.374 103.533 252.255 103.533ZM290.376 82.9361L284.516 83.5753C284.35 82.9834 284.06 82.4271 283.646 81.9062C283.244 81.3854 282.699 80.9652 282.013 80.6456C281.326 80.326 280.486 80.1662 279.491 80.1662C278.154 80.1662 277.029 80.4562 276.118 81.0362C275.218 81.6162 274.774 82.3679 274.786 83.2912C274.774 84.0843 275.064 84.7294 275.656 85.2266C276.26 85.7237 277.254 86.1321 278.639 86.4517L283.291 87.446C285.872 88.0024 287.789 88.8842 289.044 90.0916C290.31 91.299 290.95 92.8793 290.961 94.8324C290.95 96.5488 290.447 98.0639 289.452 99.3778C288.47 100.68 287.103 101.698 285.351 102.432C283.599 103.166 281.586 103.533 279.314 103.533C275.976 103.533 273.289 102.834 271.253 101.438C269.217 100.029 268.003 98.0698 267.613 95.5604L273.881 94.9567C274.165 96.1877 274.768 97.117 275.692 97.7443C276.615 98.3717 277.816 98.6854 279.296 98.6854C280.823 98.6854 282.048 98.3717 282.971 97.7443C283.907 97.117 284.374 96.3416 284.374 95.4183C284.374 94.6371 284.072 93.992 283.469 93.483C282.877 92.974 281.953 92.5833 280.699 92.3111L276.047 91.3345C273.431 90.79 271.495 89.8726 270.241 88.5824C268.986 87.2803 268.364 85.6349 268.376 83.6463C268.364 81.9654 268.82 80.5095 269.743 79.2784C270.679 78.0355 271.975 77.0767 273.632 76.402C275.301 75.7154 277.224 75.3722 279.403 75.3722C282.599 75.3722 285.114 76.0528 286.949 77.4141C288.795 78.7753 289.938 80.616 290.376 82.9361ZM308.88 75.7273V80.6989H293.202V75.7273H308.88ZM297.073 69.1932H303.5V94.7969C303.5 95.661 303.63 96.3239 303.891 96.7855C304.163 97.2353 304.518 97.5431 304.956 97.7088C305.394 97.8745 305.879 97.9574 306.412 97.9574C306.815 97.9574 307.182 97.9278 307.513 97.8686C307.856 97.8094 308.117 97.7562 308.294 97.7088L309.377 102.734C309.034 102.852 308.543 102.982 307.904 103.124C307.276 103.266 306.507 103.349 305.595 103.373C303.985 103.42 302.535 103.178 301.245 102.645C299.955 102.1 298.931 101.26 298.173 100.124C297.428 98.9872 297.061 97.5668 297.073 95.8622V69.1932ZM321.104 103.55C319.375 103.55 317.819 103.243 316.434 102.627C315.061 102 313.972 101.076 313.167 99.8572C312.374 98.638 311.977 97.1347 311.977 95.3473C311.977 93.8085 312.261 92.536 312.83 91.5298C313.398 90.5237 314.173 89.7188 315.156 89.1151C316.138 88.5114 317.245 88.0556 318.476 87.7479C319.719 87.4283 321.003 87.1974 322.329 87.0554C323.927 86.8897 325.223 86.7417 326.217 86.6115C327.212 86.4695 327.934 86.2564 328.384 85.9723C328.845 85.6764 329.076 85.2206 329.076 84.6051V84.4986C329.076 83.161 328.679 82.1252 327.886 81.3913C327.093 80.6574 325.951 80.2905 324.46 80.2905C322.885 80.2905 321.636 80.6338 320.713 81.3203C319.802 82.0069 319.186 82.8177 318.866 83.7528L312.865 82.9006C313.339 81.2434 314.12 79.8584 315.209 78.7457C316.298 77.6212 317.629 76.7808 319.204 76.2244C320.778 75.6562 322.518 75.3722 324.424 75.3722C325.738 75.3722 327.046 75.526 328.348 75.8338C329.65 76.1416 330.84 76.6506 331.917 77.3608C332.994 78.0592 333.858 79.0121 334.509 80.2195C335.172 81.4268 335.504 82.9361 335.504 84.7472V103H329.325V99.2536H329.112C328.721 100.011 328.17 100.721 327.46 101.384C326.762 102.035 325.88 102.562 324.815 102.964C323.761 103.355 322.524 103.55 321.104 103.55ZM322.773 98.8274C324.063 98.8274 325.182 98.5729 326.129 98.0639C327.076 97.5431 327.804 96.8565 328.312 96.0043C328.833 95.152 329.094 94.2228 329.094 93.2166V90.0028C328.893 90.1686 328.549 90.3224 328.064 90.4645C327.59 90.6065 327.058 90.7308 326.466 90.8374C325.874 90.9439 325.288 91.0386 324.708 91.1214C324.128 91.2043 323.625 91.2753 323.199 91.3345C322.24 91.4647 321.382 91.6778 320.624 91.9737C319.867 92.2696 319.269 92.6839 318.831 93.2166C318.393 93.7375 318.174 94.4122 318.174 95.2408C318.174 96.4245 318.606 97.3182 319.47 97.9219C320.334 98.5256 321.435 98.8274 322.773 98.8274ZM362.522 82.9361L356.663 83.5753C356.497 82.9834 356.207 82.4271 355.793 81.9062C355.39 81.3854 354.846 80.9652 354.159 80.6456C353.473 80.326 352.632 80.1662 351.638 80.1662C350.3 80.1662 349.176 80.4562 348.264 81.0362C347.365 81.6162 346.921 82.3679 346.933 83.2912C346.921 84.0843 347.211 84.7294 347.803 85.2266C348.406 85.7237 349.401 86.1321 350.786 86.4517L355.438 87.446C358.018 88.0024 359.936 88.8842 361.19 90.0916C362.457 91.299 363.096 92.8793 363.108 94.8324C363.096 96.5488 362.593 98.0639 361.599 99.3778C360.616 100.68 359.249 101.698 357.497 102.432C355.745 103.166 353.733 103.533 351.46 103.533C348.122 103.533 345.435 102.834 343.399 101.438C341.363 100.029 340.15 98.0698 339.759 95.5604L346.027 94.9567C346.311 96.1877 346.915 97.117 347.838 97.7443C348.761 98.3717 349.963 98.6854 351.442 98.6854C352.969 98.6854 354.195 98.3717 355.118 97.7443C356.053 97.117 356.521 96.3416 356.521 95.4183C356.521 94.6371 356.219 93.992 355.615 93.483C355.023 92.974 354.1 92.5833 352.845 92.3111L348.193 91.3345C345.577 90.79 343.642 89.8726 342.387 88.5824C341.132 87.2803 340.511 85.6349 340.523 83.6463C340.511 81.9654 340.967 80.5095 341.89 79.2784C342.825 78.0355 344.121 77.0767 345.778 76.402C347.447 75.7154 349.371 75.3722 351.549 75.3722C354.745 75.3722 357.26 76.0528 359.095 77.4141C360.942 78.7753 362.084 80.616 362.522 82.9361ZM367.408 103V75.7273H373.836V103H367.408ZM370.64 71.8565C369.622 71.8565 368.746 71.5192 368.012 70.8445C367.278 70.1579 366.911 69.3352 366.911 68.3764C366.911 67.4058 367.278 66.5831 368.012 65.9084C368.746 65.2218 369.622 64.8786 370.64 64.8786C371.669 64.8786 372.545 65.2218 373.267 65.9084C374.001 66.5831 374.368 67.4058 374.368 68.3764C374.368 69.3352 374.001 70.1579 373.267 70.8445C372.545 71.5192 371.669 71.8565 370.64 71.8565Z" fill="white"/>
</svg>
