<svg width="448" height="170" viewBox="0 0 448 170" fill="none" xmlns="http://www.w3.org/2000/svg">
<rect width="448" height="170" rx="20" fill="#243956"/>
<path d="M100.75 95.5C86.7325 95.5 58.75 102.482 58.75 116.5V127H142.75V116.5C142.75 102.482 114.768 95.5 100.75 95.5ZM53.5 74.5V58.75H43V74.5H27.25V85H43V100.75H53.5V85H69.25V74.5M100.75 85C106.32 85 111.661 82.7875 115.599 78.8492C119.537 74.911 121.75 69.5695 121.75 64C121.75 58.4305 119.537 53.089 115.599 49.1508C111.661 45.2125 106.32 43 100.75 43C95.1805 43 89.839 45.2125 85.9008 49.1508C81.9625 53.089 79.75 58.4305 79.75 64C79.75 69.5695 81.9625 74.911 85.9008 78.8492C89.839 82.7875 95.1805 85 100.75 85Z" fill="white"/>
<path d="M191.587 103V66.6364H205.223C208.017 66.6364 210.36 67.1217 212.254 68.0923C214.16 69.063 215.598 70.4242 216.569 72.1761C217.551 73.9162 218.043 75.9463 218.043 78.2663C218.043 80.5982 217.545 82.6224 216.551 84.3388C215.569 86.0433 214.119 87.3632 212.201 88.2983C210.283 89.2216 207.928 89.6832 205.134 89.6832H195.422V84.2145H204.246C205.88 84.2145 207.218 83.9896 208.259 83.5398C209.301 83.0781 210.07 82.4093 210.567 81.5334C211.076 80.6456 211.331 79.5566 211.331 78.2663C211.331 76.9761 211.076 75.8752 210.567 74.9638C210.058 74.0405 209.283 73.3421 208.241 72.8686C207.2 72.3833 205.856 72.1406 204.211 72.1406H198.174V103H191.587ZM210.372 86.5227L219.374 103H212.023L203.181 86.5227H210.372ZM234.505 103.533C231.771 103.533 229.409 102.964 227.421 101.828C225.444 100.68 223.923 99.0582 222.858 96.9631C221.792 94.8561 221.26 92.3762 221.26 89.5234C221.26 86.718 221.792 84.2559 222.858 82.1371C223.935 80.0064 225.438 78.3492 227.368 77.1655C229.297 75.9699 231.564 75.3722 234.168 75.3722C235.849 75.3722 237.435 75.6444 238.926 76.1889C240.43 76.7216 241.756 77.5502 242.904 78.6747C244.064 79.7992 244.975 81.2315 245.638 82.9716C246.301 84.6998 246.632 86.7595 246.632 89.1506V91.1214H224.278V86.7891H240.471C240.459 85.558 240.193 84.4631 239.672 83.5043C239.151 82.5336 238.423 81.7701 237.488 81.2138C236.565 80.6574 235.488 80.3793 234.257 80.3793C232.943 80.3793 231.789 80.6989 230.794 81.3381C229.8 81.9654 229.025 82.794 228.468 83.8239C227.924 84.8419 227.646 85.9605 227.634 87.1797V90.9616C227.634 92.5478 227.924 93.9091 228.504 95.0455C229.084 96.17 229.895 97.0341 230.936 97.6378C231.978 98.2296 233.197 98.5256 234.594 98.5256C235.529 98.5256 236.376 98.3954 237.133 98.1349C237.891 97.8627 238.548 97.4661 239.104 96.9453C239.66 96.4245 240.081 95.7794 240.365 95.0099L246.366 95.6847C245.987 97.2708 245.265 98.6558 244.2 99.8395C243.146 101.011 241.797 101.923 240.152 102.574C238.506 103.213 236.624 103.533 234.505 103.533ZM262.931 113.795C260.623 113.795 258.64 113.482 256.983 112.854C255.326 112.239 253.994 111.41 252.988 110.369C251.982 109.327 251.283 108.173 250.893 106.906L256.681 105.504C256.941 106.036 257.32 106.563 257.817 107.084C258.314 107.616 258.983 108.054 259.824 108.398C260.676 108.753 261.747 108.93 263.037 108.93C264.86 108.93 266.37 108.487 267.565 107.599C268.761 106.723 269.358 105.279 269.358 103.266V98.0994H269.039C268.707 98.7623 268.222 99.4429 267.583 100.141C266.956 100.84 266.121 101.426 265.079 101.899C264.05 102.373 262.753 102.609 261.191 102.609C259.096 102.609 257.196 102.118 255.491 101.136C253.799 100.141 252.449 98.6617 251.443 96.6967C250.449 94.7199 249.952 92.246 249.952 89.2749C249.952 86.2801 250.449 83.7528 251.443 81.6932C252.449 79.6217 253.805 78.0533 255.509 76.9879C257.214 75.9107 259.113 75.3722 261.209 75.3722C262.807 75.3722 264.121 75.6444 265.15 76.1889C266.192 76.7216 267.021 77.3667 267.636 78.1243C268.252 78.87 268.719 79.5743 269.039 80.2372H269.394V75.7273H275.733V103.444C275.733 105.776 275.176 107.705 274.064 109.232C272.951 110.759 271.43 111.902 269.501 112.659C267.571 113.417 265.381 113.795 262.931 113.795ZM262.984 97.5668C264.345 97.5668 265.506 97.2353 266.464 96.5724C267.423 95.9096 268.151 94.9567 268.648 93.7138C269.145 92.4709 269.394 90.9794 269.394 89.2393C269.394 87.523 269.145 86.0196 268.648 84.7294C268.163 83.4392 267.441 82.4389 266.482 81.7287C265.535 81.0066 264.369 80.6456 262.984 80.6456C261.552 80.6456 260.356 81.0185 259.398 81.7642C258.439 82.5099 257.717 83.5339 257.231 84.8359C256.746 86.1262 256.503 87.594 256.503 89.2393C256.503 90.9084 256.746 92.3703 257.231 93.625C257.729 94.8679 258.456 95.8385 259.415 96.5369C260.386 97.2235 261.576 97.5668 262.984 97.5668ZM298.703 91.5298V75.7273H305.131V103H298.898V98.1527H298.614C297.999 99.6797 296.987 100.929 295.578 101.899C294.181 102.87 292.459 103.355 290.411 103.355C288.624 103.355 287.043 102.959 285.67 102.165C284.309 101.361 283.244 100.195 282.474 98.6676C281.705 97.1288 281.32 95.2704 281.32 93.0923V75.7273H287.748V92.098C287.748 93.8262 288.221 95.1993 289.168 96.2173C290.115 97.2353 291.358 97.7443 292.897 97.7443C293.844 97.7443 294.761 97.5135 295.649 97.0518C296.537 96.5902 297.265 95.9036 297.833 94.9922C298.413 94.0689 298.703 92.9148 298.703 91.5298ZM317.168 66.6364V103H310.74V66.6364H317.168ZM334.851 103.533C332.117 103.533 329.755 102.964 327.767 101.828C325.79 100.68 324.269 99.0582 323.203 96.9631C322.138 94.8561 321.605 92.3762 321.605 89.5234C321.605 86.718 322.138 84.2559 323.203 82.1371C324.28 80.0064 325.784 78.3492 327.713 77.1655C329.643 75.9699 331.91 75.3722 334.514 75.3722C336.195 75.3722 337.781 75.6444 339.272 76.1889C340.776 76.7216 342.101 77.5502 343.249 78.6747C344.41 79.7992 345.321 81.2315 345.984 82.9716C346.647 84.6998 346.978 86.7595 346.978 89.1506V91.1214H324.624V86.7891H340.817C340.805 85.558 340.539 84.4631 340.018 83.5043C339.497 82.5336 338.769 81.7701 337.834 81.2138C336.911 80.6574 335.834 80.3793 334.602 80.3793C333.289 80.3793 332.134 80.6989 331.14 81.3381C330.146 81.9654 329.37 82.794 328.814 83.8239C328.27 84.8419 327.991 85.9605 327.98 87.1797V90.9616C327.98 92.5478 328.27 93.9091 328.85 95.0455C329.43 96.17 330.24 97.0341 331.282 97.6378C332.324 98.2296 333.543 98.5256 334.94 98.5256C335.875 98.5256 336.721 98.3954 337.479 98.1349C338.236 97.8627 338.893 97.4661 339.45 96.9453C340.006 96.4245 340.426 95.7794 340.71 95.0099L346.712 95.6847C346.333 97.2708 345.611 98.6558 344.546 99.8395C343.492 101.011 342.143 101.923 340.497 102.574C338.852 103.213 336.97 103.533 334.851 103.533ZM351.416 103V75.7273H357.648V80.2727H357.932C358.429 78.6984 359.282 77.4851 360.489 76.6328C361.708 75.7687 363.099 75.3366 364.662 75.3366C365.017 75.3366 365.413 75.3544 365.851 75.3899C366.301 75.4136 366.674 75.455 366.97 75.5142V81.4268C366.698 81.3321 366.266 81.2493 365.674 81.1783C365.094 81.0954 364.531 81.054 363.987 81.054C362.815 81.054 361.761 81.3085 360.826 81.8175C359.903 82.3146 359.175 83.0071 358.642 83.8949C358.11 84.7827 357.843 85.8066 357.843 86.9666V103H351.416Z" fill="white"/>
</svg>
