<svg width="44" height="44" viewBox="0 0 44 44" fill="none" xmlns="http://www.w3.org/2000/svg">
<path d="M27.5 25.6668C22.605 25.6668 12.8333 28.1052 12.8333 33.0002V36.6668H42.1667V33.0002C42.1667 28.1052 32.395 25.6668 27.5 25.6668ZM11 18.3335V12.8335H7.33334V18.3335H1.83334V22.0002H7.33334V27.5002H11V22.0002H16.5V18.3335M27.5 22.0002C29.4449 22.0002 31.3102 21.2275 32.6855 19.8523C34.0607 18.477 34.8333 16.6118 34.8333 14.6668C34.8333 12.7219 34.0607 10.8566 32.6855 9.48138C31.3102 8.10611 29.4449 7.3335 27.5 7.3335C25.5551 7.3335 23.6898 8.10611 22.3146 9.48138C20.9393 10.8566 20.1667 12.7219 20.1667 14.6668C20.1667 16.6118 20.9393 18.477 22.3146 19.8523C23.6898 21.2275 25.5551 22.0002 27.5 22.0002Z" fill="#243956"/>
</svg>
