<svg width="41" height="28" viewBox="0 0 41 28" fill="none" xmlns="http://www.w3.org/2000/svg">
<path d="M2 9.83333V5.66667C2 4.5616 2.43899 3.50179 3.22039 2.72039C4.00179 1.93899 5.0616 1.5 6.16667 1.5H10.3333M2 9.83333C4.77708 9.83333 10.3333 8.16667 10.3333 1.5M2 9.83333V18.1667M10.3333 1.5H31.1667M2 18.1667V22.3333C2 23.4384 2.43899 24.4982 3.22039 25.2796C4.00179 26.061 5.0616 26.5 6.16667 26.5H10.3333M2 18.1667C4.77708 18.1667 10.3333 19.8333 10.3333 26.5M39.5 9.83333V5.66667C39.5 4.5616 39.061 3.50179 38.2796 2.72039C37.4982 1.93899 36.4384 1.5 35.3333 1.5H31.1667M39.5 9.83333C36.7229 9.83333 31.1667 8.16667 31.1667 1.5M39.5 9.83333V18.1667M10.3333 26.5H18.6667" stroke="#243956" stroke-width="2.33" stroke-linecap="round" stroke-linejoin="round"/>
<path d="M20.75 18.1668C23.0512 18.1668 24.9167 16.3013 24.9167 14.0002C24.9167 11.699 23.0512 9.8335 20.75 9.8335C18.4489 9.8335 16.5834 11.699 16.5834 14.0002C16.5834 16.3013 18.4489 18.1668 20.75 18.1668Z" stroke="#243956" stroke-width="2.33" stroke-linecap="round" stroke-linejoin="round"/>
<path d="M27 26.5H39.5" stroke="#243956" stroke-width="2.33" stroke-linecap="round" stroke-linejoin="round"/>
</svg>
