<svg width="41" height="41" viewBox="0 0 41 41" fill="none" xmlns="http://www.w3.org/2000/svg">
<path d="M32.9377 7.625H35.1914C37.4433 7.625 38.5683 7.625 39.1571 8.33187C39.7439 9.04062 39.5002 10.1019 39.0108 12.2262L38.2796 15.4138C37.1752 20.2025 33.1439 23.765 28.2502 24.5M8.56269 7.625H6.30894C4.05706 7.625 2.93019 7.625 2.34331 8.33187C1.75644 9.04062 2.00019 10.1019 2.48956 12.2262L3.22081 15.4138C4.32519 20.2025 8.35644 23.765 13.2502 24.5M20.7502 30.125C17.6114 30.125 14.8814 32.4969 13.4714 35.9956C12.7964 37.6681 13.7639 39.5 15.0464 39.5H26.4521C27.7364 39.5 28.7021 37.6681 28.0289 35.9956C26.6189 32.4969 23.8889 30.125 20.7502 30.125Z" stroke="#243956" stroke-width="2.5" stroke-linecap="round" stroke-linejoin="round"/>
<path d="M20.7502 30.125C26.4127 30.125 31.1846 21.3837 32.6189 9.48125C33.0146 6.1925 33.2133 4.54625 32.1633 3.27312C31.1133 2 29.4164 2 26.0246 2H15.4758C12.0821 2 10.3871 2 9.33707 3.27312C8.28707 4.54625 8.4877 6.1925 8.88145 9.48313C10.3158 21.3838 15.0877 30.125 20.7502 30.125Z" stroke="#243956" stroke-width="2.5" stroke-linecap="round" stroke-linejoin="round"/>
</svg>
