<svg width="197" height="212" viewBox="0 0 197 212" fill="none" xmlns="http://www.w3.org/2000/svg">
<path d="M39.1842 129.91C39.1842 145.505 43.8088 160.75 52.4731 173.718C61.1375 186.685 73.4524 196.791 87.8607 202.759C102.269 208.727 118.123 210.289 133.419 207.246C148.715 204.204 162.765 196.694 173.793 185.666C184.82 174.639 192.33 160.589 195.373 145.293C198.415 129.997 196.854 114.143 190.885 99.7346C184.917 85.3263 174.811 73.0114 161.844 64.347C148.877 55.6827 133.631 51.0581 118.036 51.0581V129.91H39.1842Z" fill="white"/>
<path d="M62.679 6L77.2462 47.1117L118.358 61.679L77.2462 76.2462L62.679 117.358L48.1117 76.2462L7 61.679L48.1117 47.1117L62.679 6Z" fill="#243956" stroke="white" stroke-width="3.21844"/>
<path d="M39.1842 97.4036L43.0576 108.335L53.989 112.208L43.0576 116.082L39.1842 127.013L35.3108 116.082L24.3794 112.208L35.3108 108.335L39.1842 97.4036Z" fill="#243956" stroke="white" stroke-width="3.21844"/>
<path d="M122.864 21.4485L126.737 32.3799L137.669 36.2533L126.737 40.1267L122.864 51.0581L118.991 40.1267L108.059 36.2533L118.991 32.3799L122.864 21.4485Z" fill="#243956" stroke="white" stroke-width="3.21844"/>
<path d="M148.537 207.639L152.336 100.579M40.0439 155.259L144.236 94.0201" stroke="#243956" stroke-width="7.93667" stroke-linecap="round" stroke-linejoin="round"/>
<path d="M147.038 98.8441C140.222 93.3239 139.17 83.3228 144.691 76.506C150.211 69.6892 160.212 68.6381 167.029 74.1582C173.845 79.6784 174.897 89.6794 169.376 96.4963C163.856 103.313 153.855 104.364 147.038 98.8441Z" fill="#243956" stroke="#243956" stroke-width="5.36406" stroke-linecap="round" stroke-linejoin="round"/>
<path d="M71.1707 139.333C76.9078 156.905 90.7373 171.884 93.879 174.428C109.314 186.927 125.003 187.2 143.384 189.158M163.98 78.1061L173.975 65.7632" stroke="#243956" stroke-width="12.4425" stroke-linecap="round" stroke-linejoin="round"/>
<path d="M47.9983 153.494C53.7355 171.066 67.565 186.045 70.7066 188.589C86.1414 201.088 101.831 201.361 120.212 203.319M140.808 92.2673L150.803 79.9243" stroke="#243956" stroke-width="2.78717" stroke-linecap="round" stroke-linejoin="round"/>
<rect x="109.99" y="130.232" width="8.36794" height="8.36794" fill="#243956"/>
<rect x="118.358" y="122.508" width="16.0922" height="16.0922" fill="#243956"/>
<rect x="102.266" y="138.6" width="16.0922" height="16.0922" fill="#243956"/>
<rect x="93.2539" y="138.6" width="9.01163" height="9.01163" fill="#243956"/>
<rect x="118.358" y="138.6" width="9.01163" height="9.01163" fill="#243956"/>
</svg>
