<svg width="599" height="212" viewBox="0 0 599 212" fill="none" xmlns="http://www.w3.org/2000/svg">
<path d="M39.1842 129.91C39.1842 145.505 43.8088 160.75 52.4731 173.718C61.1375 186.685 73.4524 196.791 87.8607 202.759C102.269 208.727 118.123 210.289 133.419 207.246C148.715 204.204 162.765 196.694 173.793 185.666C184.82 174.639 192.33 160.589 195.373 145.293C198.415 129.997 196.854 114.143 190.885 99.7346C184.917 85.3263 174.811 73.0114 161.844 64.347C148.877 55.6827 133.631 51.0581 118.036 51.0581V129.91H39.1842Z" fill="white"/>
<path d="M62.679 6L77.2462 47.1117L118.358 61.679L77.2462 76.2462L62.679 117.358L48.1117 76.2462L7 61.679L48.1117 47.1117L62.679 6Z" fill="#243956" stroke="white" stroke-width="3.21844"/>
<path d="M39.1842 97.4036L43.0576 108.335L53.989 112.208L43.0576 116.082L39.1842 127.013L35.3108 116.082L24.3794 112.208L35.3108 108.335L39.1842 97.4036Z" fill="#243956" stroke="white" stroke-width="3.21844"/>
<path d="M122.864 21.4485L126.737 32.3799L137.669 36.2533L126.737 40.1267L122.864 51.0581L118.991 40.1267L108.059 36.2533L118.991 32.3799L122.864 21.4485Z" fill="#243956" stroke="white" stroke-width="3.21844"/>
<path d="M148.537 207.639L152.336 100.579M40.0439 155.259L144.236 94.0201" stroke="#243956" stroke-width="7.93667" stroke-linecap="round" stroke-linejoin="round"/>
<path d="M147.038 98.8441C140.222 93.3239 139.17 83.3228 144.691 76.506C150.211 69.6892 160.212 68.6381 167.029 74.1582C173.845 79.6784 174.897 89.6794 169.376 96.4963C163.856 103.313 153.855 104.364 147.038 98.8441Z" fill="#243956" stroke="#243956" stroke-width="5.36406" stroke-linecap="round" stroke-linejoin="round"/>
<path d="M71.1707 139.333C76.9078 156.905 90.7373 171.884 93.879 174.428C109.314 186.927 125.003 187.2 143.384 189.158M163.98 78.1061L173.975 65.7632" stroke="#243956" stroke-width="12.4425" stroke-linecap="round" stroke-linejoin="round"/>
<path d="M47.9983 153.494C53.7355 171.066 67.565 186.045 70.7066 188.589C86.1414 201.088 101.831 201.361 120.212 203.319M140.808 92.2673L150.803 79.9243" stroke="#243956" stroke-width="2.78717" stroke-linecap="round" stroke-linejoin="round"/>
<rect x="109.99" y="130.232" width="8.36794" height="8.36794" fill="#243956"/>
<rect x="118.358" y="122.508" width="16.0922" height="16.0922" fill="#243956"/>
<rect x="102.266" y="138.6" width="16.0922" height="16.0922" fill="#243956"/>
<rect x="93.2539" y="138.6" width="9.01163" height="9.01163" fill="#243956"/>
<rect x="118.358" y="138.6" width="9.01163" height="9.01163" fill="#243956"/>
<path d="M256.17 137.08C251.97 137.08 248.37 136.51 245.37 135.37C242.43 134.17 240 132.58 238.08 130.6C236.16 128.56 234.69 126.31 233.67 123.85C232.65 121.39 231.99 118.87 231.69 116.29H243.93C244.35 118.57 245.13 120.52 246.27 122.14C247.41 123.7 248.82 124.9 250.5 125.74C252.24 126.52 254.13 126.91 256.17 126.91C258.27 126.91 260.13 126.61 261.75 126.01C263.43 125.35 264.75 124.48 265.71 123.4C266.73 122.26 267.24 120.88 267.24 119.26C267.24 117.16 266.64 115.51 265.44 114.31C264.24 113.05 262.62 112.06 260.58 111.34C258.6 110.62 256.41 109.96 254.01 109.36C251.67 108.76 249.3 108.07 246.9 107.29C244.56 106.51 242.37 105.46 240.33 104.14C238.35 102.76 236.76 100.99 235.56 98.83C234.36 96.61 233.76 93.76 233.76 90.28C233.76 87.22 234.54 84.31 236.1 81.55C237.72 78.73 240.18 76.42 243.48 74.62C246.78 72.82 251.01 71.92 256.17 71.92C259.95 71.92 263.22 72.49 265.98 73.63C268.8 74.77 271.11 76.27 272.91 78.13C274.77 79.93 276.15 81.91 277.05 84.07C277.95 86.17 278.46 88.24 278.58 90.28H266.61C266.37 88.72 265.8 87.34 264.9 86.14C264 84.88 262.8 83.89 261.3 83.17C259.8 82.45 258 82.09 255.9 82.09C254.34 82.09 252.78 82.36 251.22 82.9C249.66 83.38 248.34 84.19 247.26 85.33C246.18 86.41 245.64 87.91 245.64 89.83C245.64 91.63 246.24 93.1 247.44 94.24C248.7 95.32 250.32 96.22 252.3 96.94C254.28 97.66 256.47 98.32 258.87 98.92C261.27 99.52 263.67 100.27 266.07 101.17C268.47 102.01 270.66 103.12 272.64 104.5C274.62 105.88 276.21 107.68 277.41 109.9C278.67 112.06 279.3 114.82 279.3 118.18C279.3 122.26 278.31 125.71 276.33 128.53C274.41 131.35 271.71 133.48 268.23 134.92C264.81 136.36 260.79 137.08 256.17 137.08ZM316.594 137.08C311.374 137.08 306.934 136.15 303.274 134.29C299.614 132.43 296.644 129.94 294.364 126.82C292.084 123.64 290.404 120.1 289.324 116.2C288.304 112.24 287.794 108.19 287.794 104.05C287.794 99.67 288.364 95.56 289.504 91.72C290.704 87.82 292.474 84.4 294.814 81.46C297.154 78.46 300.124 76.12 303.724 74.44C307.324 72.7 311.584 71.83 316.504 71.83C320.584 71.83 324.304 72.64 327.664 74.26C331.024 75.88 333.874 78.13 336.214 81.01C338.554 83.83 340.144 87.1 340.984 90.82L329.824 93.07C329.344 91.03 328.414 89.17 327.034 87.49C325.714 85.81 324.124 84.49 322.264 83.53C320.464 82.51 318.514 82 316.414 82C312.694 82 309.604 82.93 307.144 84.79C304.684 86.59 302.824 89.14 301.564 92.44C300.364 95.68 299.764 99.49 299.764 103.87C299.764 108.67 300.394 112.78 301.654 116.2C302.914 119.62 304.804 122.26 307.324 124.12C309.844 125.92 312.934 126.82 316.594 126.82C318.634 126.82 320.554 126.37 322.354 125.47C324.214 124.51 325.804 123.22 327.124 121.6C328.444 119.98 329.344 118.09 329.824 115.93L340.984 118.09C340.144 121.75 338.674 125.02 336.574 127.9C334.474 130.78 331.744 133.03 328.384 134.65C325.024 136.27 321.094 137.08 316.594 137.08ZM352.733 136V73H364.163V98.29H391.163V73H402.593V136H391.163V108.19H364.163V136H352.733ZM444.743 136.99C439.763 136.99 435.413 136.15 431.693 134.47C428.033 132.79 425.003 130.45 422.603 127.45C420.203 124.45 418.403 121 417.203 117.1C416.063 113.14 415.493 108.91 415.493 104.41C415.493 99.91 416.063 95.71 417.203 91.81C418.403 87.85 420.203 84.37 422.603 81.37C425.003 78.37 428.033 76.03 431.693 74.35C435.413 72.67 439.763 71.83 444.743 71.83C449.783 71.83 454.133 72.67 457.793 74.35C461.453 76.03 464.483 78.37 466.883 81.37C469.283 84.37 471.053 87.85 472.193 91.81C473.393 95.71 473.993 99.91 473.993 104.41C473.993 108.91 473.393 113.14 472.193 117.1C471.053 121 469.283 124.45 466.883 127.45C464.483 130.45 461.453 132.79 457.793 134.47C454.133 136.15 449.783 136.99 444.743 136.99ZM444.743 127C448.763 127 452.033 126.1 454.553 124.3C457.073 122.5 458.933 119.89 460.133 116.47C461.333 113.05 461.933 109.03 461.933 104.41C461.933 99.73 461.333 95.71 460.133 92.35C458.933 88.93 457.073 86.32 454.553 84.52C452.033 82.72 448.763 81.82 444.743 81.82C441.083 81.82 437.933 82.72 435.293 84.52C432.713 86.32 430.763 88.93 429.443 92.35C428.123 95.71 427.463 99.73 427.463 104.41C427.463 109.03 428.123 113.05 429.443 116.47C430.763 119.89 432.713 122.5 435.293 124.3C437.933 126.1 441.083 127 444.743 127ZM512.506 136.99C507.526 136.99 503.176 136.15 499.456 134.47C495.796 132.79 492.766 130.45 490.366 127.45C487.966 124.45 486.166 121 484.966 117.1C483.826 113.14 483.256 108.91 483.256 104.41C483.256 99.91 483.826 95.71 484.966 91.81C486.166 87.85 487.966 84.37 490.366 81.37C492.766 78.37 495.796 76.03 499.456 74.35C503.176 72.67 507.526 71.83 512.506 71.83C517.546 71.83 521.896 72.67 525.556 74.35C529.216 76.03 532.246 78.37 534.646 81.37C537.046 84.37 538.816 87.85 539.956 91.81C541.156 95.71 541.756 99.91 541.756 104.41C541.756 108.91 541.156 113.14 539.956 117.1C538.816 121 537.046 124.45 534.646 127.45C532.246 130.45 529.216 132.79 525.556 134.47C521.896 136.15 517.546 136.99 512.506 136.99ZM512.506 127C516.526 127 519.796 126.1 522.316 124.3C524.836 122.5 526.696 119.89 527.896 116.47C529.096 113.05 529.696 109.03 529.696 104.41C529.696 99.73 529.096 95.71 527.896 92.35C526.696 88.93 524.836 86.32 522.316 84.52C519.796 82.72 516.526 81.82 512.506 81.82C508.846 81.82 505.696 82.72 503.056 84.52C500.476 86.32 498.526 88.93 497.206 92.35C495.886 95.71 495.226 99.73 495.226 104.41C495.226 109.03 495.886 113.05 497.206 116.47C498.526 119.89 500.476 122.5 503.056 124.3C505.696 126.1 508.846 127 512.506 127ZM554.53 136V73H565.96V126.01H595.39V136H554.53Z" fill="white"/>
<path d="M245.36 175.52C243.2 175.52 241.36 175.12 239.84 174.32C238.32 173.52 237.08 172.427 236.12 171.04C235.16 169.653 234.453 168.08 234 166.32C233.547 164.56 233.32 162.72 233.32 160.8C233.32 158.933 233.547 157.147 234 155.44C234.48 153.733 235.2 152.213 236.16 150.88C237.147 149.52 238.4 148.453 239.92 147.68C241.44 146.88 243.253 146.48 245.36 146.48C247.413 146.48 249.173 146.853 250.64 147.6C252.107 148.32 253.293 149.32 254.2 150.6C255.133 151.853 255.787 153.307 256.16 154.96L253.6 155.48C253.36 154.227 252.853 153.093 252.08 152.08C251.333 151.067 250.373 150.253 249.2 149.64C248.053 149.027 246.773 148.72 245.36 148.72C243.52 148.72 241.88 149.213 240.44 150.2C239 151.16 237.867 152.533 237.04 154.32C236.213 156.107 235.8 158.24 235.8 160.72C235.8 163.253 236.16 165.467 236.88 167.36C237.627 169.227 238.707 170.68 240.12 171.72C241.56 172.76 243.307 173.28 245.36 173.28C247.04 173.28 248.52 172.813 249.8 171.88C251.107 170.92 252.133 169.627 252.88 168C253.627 166.373 254 164.547 254 162.52H245.32V160.28H256.48V175H254.4C254.4 175 254.387 174.747 254.36 174.24C254.333 173.733 254.293 173.147 254.24 172.48C254.213 171.787 254.187 171.187 254.16 170.68C254.133 170.173 254.12 169.92 254.12 169.92C253.8 170.96 253.227 171.907 252.4 172.76C251.6 173.613 250.6 174.293 249.4 174.8C248.2 175.28 246.853 175.52 245.36 175.52ZM263.847 175V147H266.087V175H263.847ZM281.869 175.48C280.216 175.48 278.696 175.093 277.309 174.32C275.923 173.52 274.816 172.347 273.989 170.8C273.163 169.227 272.749 167.293 272.749 165C272.749 163.267 272.989 161.76 273.469 160.48C273.949 159.173 274.603 158.08 275.429 157.2C276.283 156.293 277.256 155.627 278.349 155.2C279.469 154.747 280.643 154.52 281.869 154.52C283.523 154.52 285.043 154.92 286.429 155.72C287.816 156.493 288.923 157.667 289.749 159.24C290.576 160.787 290.989 162.707 290.989 165C290.989 166.707 290.749 168.213 290.269 169.52C289.789 170.827 289.123 171.933 288.269 172.84C287.443 173.72 286.483 174.387 285.389 174.84C284.296 175.267 283.123 175.48 281.869 175.48ZM281.869 173.48C284.083 173.48 285.763 172.72 286.909 171.2C288.083 169.653 288.669 167.587 288.669 165C288.669 162.413 288.083 160.36 286.909 158.84C285.763 157.293 284.083 156.52 281.869 156.52C279.656 156.52 277.963 157.293 276.789 158.84C275.643 160.36 275.069 162.413 275.069 165C275.069 167.587 275.643 169.653 276.789 171.2C277.963 172.72 279.656 173.48 281.869 173.48ZM300.524 158.92C300.79 158.173 301.23 157.467 301.844 156.8C302.484 156.133 303.284 155.587 304.244 155.16C305.204 154.733 306.284 154.52 307.484 154.52C309.057 154.52 310.484 154.947 311.764 155.8C313.044 156.627 314.057 157.827 314.804 159.4C315.577 160.947 315.964 162.813 315.964 165C315.964 167.24 315.604 169.147 314.884 170.72C314.164 172.267 313.164 173.453 311.884 174.28C310.63 175.08 309.164 175.48 307.484 175.48C306.364 175.48 305.324 175.267 304.364 174.84C303.404 174.413 302.59 173.867 301.924 173.2C301.257 172.507 300.79 171.8 300.524 171.08V175H298.284V147H300.524V158.92ZM307.004 156.52C305.964 156.52 304.937 156.84 303.924 157.48C302.937 158.093 302.124 159.027 301.484 160.28C300.844 161.533 300.51 163.107 300.484 165C300.51 166.893 300.844 168.467 301.484 169.72C302.124 170.973 302.937 171.92 303.924 172.56C304.937 173.173 305.964 173.48 307.004 173.48C308.524 173.48 309.764 173.133 310.724 172.44C311.71 171.72 312.43 170.733 312.884 169.48C313.364 168.2 313.604 166.733 313.604 165.08C313.604 163.373 313.324 161.88 312.764 160.6C312.23 159.32 311.47 158.32 310.484 157.6C309.497 156.88 308.337 156.52 307.004 156.52ZM330.348 175.48C328.801 175.48 327.375 175.067 326.068 174.24C324.788 173.387 323.761 172.187 322.988 170.64C322.241 169.067 321.868 167.187 321.868 165C321.868 162.733 322.241 160.827 322.988 159.28C323.761 157.733 324.788 156.56 326.068 155.76C327.375 154.933 328.801 154.52 330.348 154.52C331.495 154.52 332.535 154.72 333.468 155.12C334.428 155.52 335.241 156.04 335.908 156.68C336.575 157.32 337.041 158.013 337.308 158.76V155H339.548V175H337.308V171.32C337.015 172.227 336.481 173 335.708 173.64C334.935 174.253 334.068 174.707 333.108 175C332.148 175.32 331.228 175.48 330.348 175.48ZM330.828 173.48C332.108 173.48 333.228 173.16 334.188 172.52C335.175 171.853 335.948 170.893 336.508 169.64C337.068 168.387 337.348 166.84 337.348 165C337.348 163.107 337.015 161.533 336.348 160.28C335.708 159.027 334.895 158.093 333.908 157.48C332.921 156.84 331.895 156.52 330.828 156.52C329.335 156.52 328.095 156.88 327.108 157.6C326.121 158.293 325.388 159.267 324.908 160.52C324.455 161.773 324.228 163.24 324.228 164.92C324.228 166.627 324.495 168.12 325.028 169.4C325.588 170.68 326.361 171.68 327.348 172.4C328.361 173.12 329.521 173.48 330.828 173.48ZM347.553 175V147H349.793V175H347.553ZM371.798 175V147H374.358V159.32H388.838V147H391.398V175H388.838V161.56H374.358V175H371.798ZM401.745 151.6C401.238 151.6 400.785 151.413 400.385 151.04C400.012 150.667 399.825 150.227 399.825 149.72C399.825 149.187 400.012 148.733 400.385 148.36C400.785 147.987 401.238 147.8 401.745 147.8C402.252 147.8 402.678 147.987 403.025 148.36C403.398 148.733 403.585 149.187 403.585 149.72C403.585 150.227 403.398 150.667 403.025 151.04C402.678 151.413 402.252 151.6 401.745 151.6ZM400.585 175V155H402.825V175H400.585ZM426.122 174.48V171.16C425.828 172.067 425.282 172.853 424.482 173.52C423.708 174.16 422.842 174.653 421.882 175C420.922 175.32 420.002 175.48 419.122 175.48C417.548 175.48 416.108 175.067 414.802 174.24C413.522 173.387 412.508 172.187 411.762 170.64C411.015 169.067 410.642 167.187 410.642 165C410.642 162.733 411.015 160.827 411.762 159.28C412.535 157.733 413.562 156.56 414.842 155.76C416.148 154.933 417.575 154.52 419.122 154.52C420.268 154.52 421.308 154.733 422.242 155.16C423.202 155.587 424.015 156.133 424.682 156.8C425.348 157.467 425.815 158.173 426.082 158.92V155H428.362V174.48C428.362 176.987 427.948 178.947 427.122 180.36C426.322 181.773 425.242 182.76 423.882 183.32C422.522 183.907 421.002 184.2 419.322 184.2C417.668 184.2 416.282 183.973 415.162 183.52C414.042 183.067 413.135 182.48 412.442 181.76C411.748 181.067 411.215 180.347 410.842 179.6L412.842 178.24C413.055 178.613 413.402 179.093 413.882 179.68C414.388 180.293 415.082 180.84 415.962 181.32C416.868 181.8 417.988 182.04 419.322 182.04C421.615 182.04 423.322 181.36 424.442 180C425.562 178.64 426.122 176.8 426.122 174.48ZM419.602 173.48C420.882 173.48 422.002 173.16 422.962 172.52C423.948 171.853 424.722 170.893 425.282 169.64C425.842 168.387 426.122 166.84 426.122 165C426.122 163.107 425.788 161.533 425.122 160.28C424.482 159.027 423.668 158.093 422.682 157.48C421.695 156.84 420.668 156.52 419.602 156.52C418.108 156.52 416.868 156.88 415.882 157.6C414.895 158.293 414.162 159.267 413.682 160.52C413.202 161.773 412.962 163.24 412.962 164.92C412.962 166.627 413.242 168.12 413.802 169.4C414.362 170.68 415.135 171.68 416.122 172.4C417.135 173.12 418.295 173.48 419.602 173.48ZM436.215 175V147H438.455V159.16C438.535 158.813 438.708 158.387 438.975 157.88C439.268 157.347 439.668 156.827 440.175 156.32C440.708 155.813 441.388 155.387 442.215 155.04C443.042 154.693 444.055 154.52 445.255 154.52C446.562 154.52 447.762 154.827 448.855 155.44C449.948 156.027 450.828 156.893 451.495 158.04C452.188 159.16 452.535 160.52 452.535 162.12V175H450.295V162.6C450.295 160.573 449.748 159.053 448.655 158.04C447.588 157.027 446.242 156.52 444.615 156.52C443.308 156.52 442.188 156.893 441.255 157.64C440.348 158.387 439.655 159.347 439.175 160.52C438.695 161.693 438.455 162.92 438.455 164.2V175H436.215ZM482.639 175.48C481.012 175.48 479.572 175.227 478.319 174.72C477.066 174.213 476.012 173.533 475.159 172.68C474.306 171.827 473.626 170.867 473.119 169.8C472.639 168.707 472.332 167.587 472.199 166.44H474.879C475.092 167.667 475.492 168.8 476.079 169.84C476.666 170.88 477.492 171.707 478.559 172.32C479.652 172.933 481.012 173.24 482.639 173.24C484.266 173.24 485.586 172.973 486.599 172.44C487.639 171.88 488.412 171.173 488.919 170.32C489.426 169.44 489.679 168.52 489.679 167.56C489.679 166.44 489.372 165.547 488.759 164.88C488.172 164.213 487.386 163.693 486.399 163.32C485.412 162.92 484.332 162.587 483.159 162.32C481.986 162.027 480.812 161.72 479.639 161.4C478.466 161.08 477.386 160.653 476.399 160.12C475.412 159.587 474.612 158.867 473.999 157.96C473.412 157.027 473.119 155.827 473.119 154.36C473.119 153 473.452 151.72 474.119 150.52C474.812 149.32 475.839 148.36 477.199 147.64C478.586 146.893 480.319 146.52 482.399 146.52C483.839 146.52 485.132 146.76 486.279 147.24C487.426 147.72 488.399 148.36 489.199 149.16C490.026 149.933 490.652 150.787 491.079 151.72C491.532 152.653 491.786 153.573 491.839 154.48H489.199C489.092 153.573 488.772 152.693 488.239 151.84C487.732 150.96 486.972 150.227 485.959 149.64C484.972 149.053 483.692 148.76 482.119 148.76C480.679 148.76 479.479 149.013 478.519 149.52C477.559 150.027 476.826 150.693 476.319 151.52C475.839 152.347 475.599 153.227 475.599 154.16C475.599 155.227 475.892 156.093 476.479 156.76C477.092 157.4 477.892 157.92 478.879 158.32C479.866 158.72 480.946 159.08 482.119 159.4C483.292 159.693 484.466 160.013 485.639 160.36C486.812 160.707 487.892 161.147 488.879 161.68C489.866 162.213 490.652 162.92 491.239 163.8C491.852 164.68 492.159 165.813 492.159 167.2C492.159 169.013 491.746 170.547 490.919 171.8C490.092 173.027 488.959 173.947 487.519 174.56C486.106 175.173 484.479 175.48 482.639 175.48ZM514.427 159.68L512.347 160.48C511.921 159.467 511.214 158.56 510.227 157.76C509.267 156.933 508.081 156.52 506.667 156.52C504.534 156.52 502.894 157.293 501.747 158.84C500.601 160.36 500.027 162.413 500.027 165C500.027 167.587 500.601 169.653 501.747 171.2C502.894 172.72 504.534 173.48 506.667 173.48C508.081 173.48 509.254 173.067 510.187 172.24C511.121 171.413 511.801 170.44 512.227 169.32L514.307 170.16C513.534 171.867 512.561 173.187 511.387 174.12C510.241 175.027 508.667 175.48 506.667 175.48C505.067 175.48 503.587 175.093 502.227 174.32C500.867 173.52 499.774 172.347 498.947 170.8C498.121 169.227 497.707 167.293 497.707 165C497.707 162.707 498.121 160.787 498.947 159.24C499.774 157.667 500.867 156.493 502.227 155.72C503.587 154.92 505.067 154.52 506.667 154.52C508.321 154.52 509.827 154.96 511.187 155.84C512.574 156.693 513.654 157.973 514.427 159.68ZM521.21 175V147H523.45V159.16C523.53 158.813 523.704 158.387 523.97 157.88C524.264 157.347 524.664 156.827 525.17 156.32C525.704 155.813 526.384 155.387 527.21 155.04C528.037 154.693 529.05 154.52 530.25 154.52C531.557 154.52 532.757 154.827 533.85 155.44C534.944 156.027 535.824 156.893 536.49 158.04C537.184 159.16 537.53 160.52 537.53 162.12V175H535.29V162.6C535.29 160.573 534.744 159.053 533.65 158.04C532.584 157.027 531.237 156.52 529.61 156.52C528.304 156.52 527.184 156.893 526.25 157.64C525.344 158.387 524.65 159.347 524.17 160.52C523.69 161.693 523.45 162.92 523.45 164.2V175H521.21ZM552.821 175.48C551.168 175.48 549.648 175.093 548.261 174.32C546.874 173.52 545.768 172.347 544.941 170.8C544.114 169.227 543.701 167.293 543.701 165C543.701 163.267 543.941 161.76 544.421 160.48C544.901 159.173 545.554 158.08 546.381 157.2C547.234 156.293 548.208 155.627 549.301 155.2C550.421 154.747 551.594 154.52 552.821 154.52C554.474 154.52 555.994 154.92 557.381 155.72C558.768 156.493 559.874 157.667 560.701 159.24C561.528 160.787 561.941 162.707 561.941 165C561.941 166.707 561.701 168.213 561.221 169.52C560.741 170.827 560.074 171.933 559.221 172.84C558.394 173.72 557.434 174.387 556.341 174.84C555.248 175.267 554.074 175.48 552.821 175.48ZM552.821 173.48C555.034 173.48 556.714 172.72 557.861 171.2C559.034 169.653 559.621 167.587 559.621 165C559.621 162.413 559.034 160.36 557.861 158.84C556.714 157.293 555.034 156.52 552.821 156.52C550.608 156.52 548.914 157.293 547.741 158.84C546.594 160.36 546.021 162.413 546.021 165C546.021 167.587 546.594 169.653 547.741 171.2C548.914 172.72 550.608 173.48 552.821 173.48ZM576.755 175.48C575.102 175.48 573.582 175.093 572.195 174.32C570.809 173.52 569.702 172.347 568.875 170.8C568.049 169.227 567.635 167.293 567.635 165C567.635 163.267 567.875 161.76 568.355 160.48C568.835 159.173 569.489 158.08 570.315 157.2C571.169 156.293 572.142 155.627 573.235 155.2C574.355 154.747 575.529 154.52 576.755 154.52C578.409 154.52 579.929 154.92 581.315 155.72C582.702 156.493 583.809 157.667 584.635 159.24C585.462 160.787 585.875 162.707 585.875 165C585.875 166.707 585.635 168.213 585.155 169.52C584.675 170.827 584.009 171.933 583.155 172.84C582.329 173.72 581.369 174.387 580.275 174.84C579.182 175.267 578.009 175.48 576.755 175.48ZM576.755 173.48C578.969 173.48 580.649 172.72 581.795 171.2C582.969 169.653 583.555 167.587 583.555 165C583.555 162.413 582.969 160.36 581.795 158.84C580.649 157.293 578.969 156.52 576.755 156.52C574.542 156.52 572.849 157.293 571.675 158.84C570.529 160.36 569.955 162.413 569.955 165C569.955 167.587 570.529 169.653 571.675 171.2C572.849 172.72 574.542 173.48 576.755 173.48ZM592.539 175V147H594.779V175H592.539Z" fill="white"/>
</svg>
